<mxfile host="Electron" modified="2024-03-18T08:16:21.985Z" agent="Mozilla/5.0 (Windows NT 10.0; Win64; x64) AppleWebKit/537.36 (KHTML, like Gecko) draw.io/24.0.4 Chrome/120.0.6099.109 Electron/28.1.0 Safari/537.36" etag="5T5cjPTuRKo7Lp8JFd6a" version="24.0.4" type="device">
  <diagram name="Pagina-1" id="h8wLSMAZNpNyWoTJ6G6y">
    <mxGraphModel dx="1450" dy="1029" grid="1" gridSize="10" guides="1" tooltips="1" connect="1" arrows="1" fold="1" page="0" pageScale="1" pageWidth="827" pageHeight="1169" math="0" shadow="1">
      <root>
        <mxCell id="0" />
        <mxCell id="1" parent="0" />
        <mxCell id="7-9geM-oALS8OVl-i5yI-34" style="edgeStyle=orthogonalEdgeStyle;rounded=0;orthogonalLoop=1;jettySize=auto;html=1;endArrow=doubleBlock;endFill=1;" parent="1" source="7-9geM-oALS8OVl-i5yI-1" target="7-9geM-oALS8OVl-i5yI-31" edge="1">
          <mxGeometry relative="1" as="geometry" />
        </mxCell>
        <mxCell id="7-9geM-oALS8OVl-i5yI-41" style="edgeStyle=orthogonalEdgeStyle;rounded=0;orthogonalLoop=1;jettySize=auto;html=1;endArrow=doubleBlock;endFill=1;" parent="1" source="7-9geM-oALS8OVl-i5yI-1" target="7-9geM-oALS8OVl-i5yI-39" edge="1">
          <mxGeometry relative="1" as="geometry" />
        </mxCell>
        <mxCell id="7-9geM-oALS8OVl-i5yI-104" style="edgeStyle=orthogonalEdgeStyle;rounded=0;orthogonalLoop=1;jettySize=auto;html=1;entryX=0;entryY=0.5;entryDx=0;entryDy=0;exitX=0.936;exitY=1.008;exitDx=0;exitDy=0;exitPerimeter=0;" parent="1" source="7-9geM-oALS8OVl-i5yI-1" target="7-9geM-oALS8OVl-i5yI-94" edge="1">
          <mxGeometry relative="1" as="geometry" />
        </mxCell>
        <mxCell id="7-9geM-oALS8OVl-i5yI-105" style="edgeStyle=orthogonalEdgeStyle;rounded=0;orthogonalLoop=1;jettySize=auto;html=1;entryX=0;entryY=0.5;entryDx=0;entryDy=0;exitX=0.934;exitY=0.998;exitDx=0;exitDy=0;exitPerimeter=0;" parent="1" source="7-9geM-oALS8OVl-i5yI-1" target="7-9geM-oALS8OVl-i5yI-93" edge="1">
          <mxGeometry relative="1" as="geometry" />
        </mxCell>
        <mxCell id="7-9geM-oALS8OVl-i5yI-106" style="edgeStyle=orthogonalEdgeStyle;rounded=0;orthogonalLoop=1;jettySize=auto;html=1;entryX=0;entryY=0.5;entryDx=0;entryDy=0;exitX=0.936;exitY=0.996;exitDx=0;exitDy=0;exitPerimeter=0;" parent="1" source="7-9geM-oALS8OVl-i5yI-1" target="7-9geM-oALS8OVl-i5yI-99" edge="1">
          <mxGeometry relative="1" as="geometry" />
        </mxCell>
        <mxCell id="7-9geM-oALS8OVl-i5yI-1" value="Cinema" style="rounded=0;whiteSpace=wrap;html=1;" parent="1" vertex="1">
          <mxGeometry x="60" y="50" width="120" height="60" as="geometry" />
        </mxCell>
        <mxCell id="7-9geM-oALS8OVl-i5yI-33" style="edgeStyle=orthogonalEdgeStyle;rounded=0;orthogonalLoop=1;jettySize=auto;html=1;endArrow=classic;endFill=1;" parent="1" source="7-9geM-oALS8OVl-i5yI-2" target="7-9geM-oALS8OVl-i5yI-31" edge="1">
          <mxGeometry relative="1" as="geometry" />
        </mxCell>
        <mxCell id="7-9geM-oALS8OVl-i5yI-48" style="edgeStyle=orthogonalEdgeStyle;rounded=0;orthogonalLoop=1;jettySize=auto;html=1;entryX=0;entryY=0.5;entryDx=0;entryDy=0;endArrow=doubleBlock;endFill=1;" parent="1" source="7-9geM-oALS8OVl-i5yI-2" target="7-9geM-oALS8OVl-i5yI-46" edge="1">
          <mxGeometry relative="1" as="geometry" />
        </mxCell>
        <mxCell id="7-9geM-oALS8OVl-i5yI-117" style="edgeStyle=orthogonalEdgeStyle;rounded=0;orthogonalLoop=1;jettySize=auto;html=1;entryX=0;entryY=0.5;entryDx=0;entryDy=0;" parent="1" source="7-9geM-oALS8OVl-i5yI-2" target="7-9geM-oALS8OVl-i5yI-108" edge="1">
          <mxGeometry relative="1" as="geometry" />
        </mxCell>
        <mxCell id="7-9geM-oALS8OVl-i5yI-118" style="edgeStyle=orthogonalEdgeStyle;rounded=0;orthogonalLoop=1;jettySize=auto;html=1;entryX=0;entryY=0.5;entryDx=0;entryDy=0;" parent="1" source="7-9geM-oALS8OVl-i5yI-2" target="7-9geM-oALS8OVl-i5yI-109" edge="1">
          <mxGeometry relative="1" as="geometry" />
        </mxCell>
        <mxCell id="7-9geM-oALS8OVl-i5yI-119" style="edgeStyle=orthogonalEdgeStyle;rounded=0;orthogonalLoop=1;jettySize=auto;html=1;entryX=0;entryY=0.5;entryDx=0;entryDy=0;" parent="1" source="7-9geM-oALS8OVl-i5yI-2" target="7-9geM-oALS8OVl-i5yI-110" edge="1">
          <mxGeometry relative="1" as="geometry" />
        </mxCell>
        <mxCell id="7-9geM-oALS8OVl-i5yI-2" value="Theater" style="rounded=0;whiteSpace=wrap;html=1;" parent="1" vertex="1">
          <mxGeometry x="60" y="330" width="120" height="60" as="geometry" />
        </mxCell>
        <mxCell id="7-9geM-oALS8OVl-i5yI-53" style="edgeStyle=orthogonalEdgeStyle;rounded=0;orthogonalLoop=1;jettySize=auto;html=1;entryX=0.5;entryY=0;entryDx=0;entryDy=0;endArrow=doubleBlock;endFill=1;" parent="1" source="7-9geM-oALS8OVl-i5yI-3" target="7-9geM-oALS8OVl-i5yI-51" edge="1">
          <mxGeometry relative="1" as="geometry" />
        </mxCell>
        <mxCell id="7-9geM-oALS8OVl-i5yI-68" style="edgeStyle=orthogonalEdgeStyle;rounded=0;orthogonalLoop=1;jettySize=auto;html=1;endArrow=doubleBlock;endFill=1;" parent="1" source="7-9geM-oALS8OVl-i5yI-3" target="7-9geM-oALS8OVl-i5yI-77" edge="1">
          <mxGeometry relative="1" as="geometry">
            <mxPoint x="610" y="80" as="targetPoint" />
          </mxGeometry>
        </mxCell>
        <mxCell id="7-9geM-oALS8OVl-i5yI-3" value="Movie" style="rounded=0;whiteSpace=wrap;html=1;" parent="1" vertex="1">
          <mxGeometry x="480" y="50" width="120" height="60" as="geometry" />
        </mxCell>
        <mxCell id="7-9geM-oALS8OVl-i5yI-47" style="edgeStyle=orthogonalEdgeStyle;rounded=0;orthogonalLoop=1;jettySize=auto;html=1;" parent="1" source="7-9geM-oALS8OVl-i5yI-4" target="7-9geM-oALS8OVl-i5yI-46" edge="1">
          <mxGeometry relative="1" as="geometry" />
        </mxCell>
        <mxCell id="7-9geM-oALS8OVl-i5yI-52" style="edgeStyle=orthogonalEdgeStyle;rounded=0;orthogonalLoop=1;jettySize=auto;html=1;" parent="1" source="7-9geM-oALS8OVl-i5yI-4" target="7-9geM-oALS8OVl-i5yI-51" edge="1">
          <mxGeometry relative="1" as="geometry" />
        </mxCell>
        <mxCell id="7-9geM-oALS8OVl-i5yI-62" style="edgeStyle=orthogonalEdgeStyle;rounded=0;orthogonalLoop=1;jettySize=auto;html=1;endArrow=doubleBlock;endFill=1;" parent="1" source="7-9geM-oALS8OVl-i5yI-4" target="7-9geM-oALS8OVl-i5yI-60" edge="1">
          <mxGeometry relative="1" as="geometry" />
        </mxCell>
        <mxCell id="7-9geM-oALS8OVl-i5yI-138" style="edgeStyle=orthogonalEdgeStyle;rounded=0;orthogonalLoop=1;jettySize=auto;html=1;entryX=0;entryY=0.5;entryDx=0;entryDy=0;" parent="1" source="7-9geM-oALS8OVl-i5yI-4" target="7-9geM-oALS8OVl-i5yI-131" edge="1">
          <mxGeometry relative="1" as="geometry" />
        </mxCell>
        <mxCell id="7-9geM-oALS8OVl-i5yI-139" style="edgeStyle=orthogonalEdgeStyle;rounded=0;orthogonalLoop=1;jettySize=auto;html=1;entryX=0;entryY=0.5;entryDx=0;entryDy=0;" parent="1" source="7-9geM-oALS8OVl-i5yI-4" target="7-9geM-oALS8OVl-i5yI-132" edge="1">
          <mxGeometry relative="1" as="geometry" />
        </mxCell>
        <mxCell id="7-9geM-oALS8OVl-i5yI-140" style="edgeStyle=orthogonalEdgeStyle;rounded=0;orthogonalLoop=1;jettySize=auto;html=1;entryX=0;entryY=0.5;entryDx=0;entryDy=0;" parent="1" source="7-9geM-oALS8OVl-i5yI-4" target="7-9geM-oALS8OVl-i5yI-133" edge="1">
          <mxGeometry relative="1" as="geometry" />
        </mxCell>
        <mxCell id="7-9geM-oALS8OVl-i5yI-4" value="ShowTime" style="rounded=0;whiteSpace=wrap;html=1;" parent="1" vertex="1">
          <mxGeometry x="480" y="330" width="120" height="60" as="geometry" />
        </mxCell>
        <mxCell id="7-9geM-oALS8OVl-i5yI-59" style="edgeStyle=orthogonalEdgeStyle;rounded=0;orthogonalLoop=1;jettySize=auto;html=1;" parent="1" source="7-9geM-oALS8OVl-i5yI-5" target="7-9geM-oALS8OVl-i5yI-56" edge="1">
          <mxGeometry relative="1" as="geometry" />
        </mxCell>
        <mxCell id="7-9geM-oALS8OVl-i5yI-61" style="edgeStyle=orthogonalEdgeStyle;rounded=0;orthogonalLoop=1;jettySize=auto;html=1;" parent="1" source="7-9geM-oALS8OVl-i5yI-5" target="7-9geM-oALS8OVl-i5yI-60" edge="1">
          <mxGeometry relative="1" as="geometry" />
        </mxCell>
        <mxCell id="7-9geM-oALS8OVl-i5yI-149" style="edgeStyle=orthogonalEdgeStyle;rounded=0;orthogonalLoop=1;jettySize=auto;html=1;entryX=0;entryY=0.5;entryDx=0;entryDy=0;" parent="1" source="7-9geM-oALS8OVl-i5yI-5" target="7-9geM-oALS8OVl-i5yI-142" edge="1">
          <mxGeometry relative="1" as="geometry" />
        </mxCell>
        <mxCell id="7-9geM-oALS8OVl-i5yI-150" style="edgeStyle=orthogonalEdgeStyle;rounded=0;orthogonalLoop=1;jettySize=auto;html=1;entryX=0;entryY=0.5;entryDx=0;entryDy=0;" parent="1" source="7-9geM-oALS8OVl-i5yI-5" target="7-9geM-oALS8OVl-i5yI-143" edge="1">
          <mxGeometry relative="1" as="geometry" />
        </mxCell>
        <mxCell id="7-9geM-oALS8OVl-i5yI-5" value="Ticket" style="rounded=0;whiteSpace=wrap;html=1;" parent="1" vertex="1">
          <mxGeometry x="1000" y="330" width="120" height="60" as="geometry" />
        </mxCell>
        <mxCell id="7-9geM-oALS8OVl-i5yI-58" style="edgeStyle=orthogonalEdgeStyle;rounded=0;orthogonalLoop=1;jettySize=auto;html=1;entryX=0.5;entryY=0;entryDx=0;entryDy=0;endArrow=doubleBlock;endFill=1;" parent="1" source="7-9geM-oALS8OVl-i5yI-6" target="7-9geM-oALS8OVl-i5yI-56" edge="1">
          <mxGeometry relative="1" as="geometry" />
        </mxCell>
        <mxCell id="7-9geM-oALS8OVl-i5yI-64" style="edgeStyle=orthogonalEdgeStyle;rounded=0;orthogonalLoop=1;jettySize=auto;html=1;endArrow=doubleBlock;endFill=1;entryX=1;entryY=0.5;entryDx=0;entryDy=0;" parent="1" source="7-9geM-oALS8OVl-i5yI-6" target="7-9geM-oALS8OVl-i5yI-77" edge="1">
          <mxGeometry relative="1" as="geometry">
            <mxPoint x="1040" y="80" as="targetPoint" />
          </mxGeometry>
        </mxCell>
        <mxCell id="7-9geM-oALS8OVl-i5yI-161" style="edgeStyle=orthogonalEdgeStyle;rounded=0;orthogonalLoop=1;jettySize=auto;html=1;entryX=0;entryY=0.5;entryDx=0;entryDy=0;exitX=0.89;exitY=1.008;exitDx=0;exitDy=0;exitPerimeter=0;" parent="1" source="7-9geM-oALS8OVl-i5yI-6" target="7-9geM-oALS8OVl-i5yI-152" edge="1">
          <mxGeometry relative="1" as="geometry">
            <Array as="points">
              <mxPoint x="1110" y="110" />
              <mxPoint x="1110" y="155" />
            </Array>
          </mxGeometry>
        </mxCell>
        <mxCell id="7-9geM-oALS8OVl-i5yI-162" style="edgeStyle=orthogonalEdgeStyle;rounded=0;orthogonalLoop=1;jettySize=auto;html=1;entryX=0;entryY=0.5;entryDx=0;entryDy=0;exitX=0.894;exitY=1.011;exitDx=0;exitDy=0;exitPerimeter=0;" parent="1" source="7-9geM-oALS8OVl-i5yI-6" target="7-9geM-oALS8OVl-i5yI-153" edge="1">
          <mxGeometry relative="1" as="geometry">
            <Array as="points">
              <mxPoint x="1110" y="111" />
              <mxPoint x="1110" y="205" />
            </Array>
          </mxGeometry>
        </mxCell>
        <mxCell id="7-9geM-oALS8OVl-i5yI-163" style="edgeStyle=orthogonalEdgeStyle;rounded=0;orthogonalLoop=1;jettySize=auto;html=1;entryX=0;entryY=0.5;entryDx=0;entryDy=0;exitX=0.887;exitY=1.011;exitDx=0;exitDy=0;exitPerimeter=0;" parent="1" source="7-9geM-oALS8OVl-i5yI-6" target="7-9geM-oALS8OVl-i5yI-154" edge="1">
          <mxGeometry relative="1" as="geometry">
            <Array as="points">
              <mxPoint x="1110" y="111" />
              <mxPoint x="1110" y="255" />
            </Array>
          </mxGeometry>
        </mxCell>
        <mxCell id="7-9geM-oALS8OVl-i5yI-164" style="edgeStyle=orthogonalEdgeStyle;rounded=0;orthogonalLoop=1;jettySize=auto;html=1;entryX=0;entryY=0.5;entryDx=0;entryDy=0;exitX=0.914;exitY=1.005;exitDx=0;exitDy=0;exitPerimeter=0;" parent="1" source="7-9geM-oALS8OVl-i5yI-6" target="7-9geM-oALS8OVl-i5yI-159" edge="1">
          <mxGeometry relative="1" as="geometry" />
        </mxCell>
        <mxCell id="7-9geM-oALS8OVl-i5yI-6" value="Customer" style="rounded=0;whiteSpace=wrap;html=1;glass=0;shadow=1;textShadow=1;" parent="1" vertex="1">
          <mxGeometry x="1000" y="50" width="120" height="60" as="geometry" />
        </mxCell>
        <mxCell id="7-9geM-oALS8OVl-i5yI-40" style="edgeStyle=orthogonalEdgeStyle;rounded=0;orthogonalLoop=1;jettySize=auto;html=1;entryX=0;entryY=0.5;entryDx=0;entryDy=0;" parent="1" source="7-9geM-oALS8OVl-i5yI-8" target="7-9geM-oALS8OVl-i5yI-39" edge="1">
          <mxGeometry relative="1" as="geometry" />
        </mxCell>
        <mxCell id="7-9geM-oALS8OVl-i5yI-84" style="edgeStyle=orthogonalEdgeStyle;rounded=0;orthogonalLoop=1;jettySize=auto;html=1;entryX=0;entryY=0.5;entryDx=0;entryDy=0;" parent="1" source="7-9geM-oALS8OVl-i5yI-8" target="7-9geM-oALS8OVl-i5yI-78" edge="1">
          <mxGeometry relative="1" as="geometry" />
        </mxCell>
        <mxCell id="7-9geM-oALS8OVl-i5yI-85" style="edgeStyle=orthogonalEdgeStyle;rounded=0;orthogonalLoop=1;jettySize=auto;html=1;entryX=0;entryY=0.5;entryDx=0;entryDy=0;" parent="1" source="7-9geM-oALS8OVl-i5yI-8" target="7-9geM-oALS8OVl-i5yI-79" edge="1">
          <mxGeometry relative="1" as="geometry" />
        </mxCell>
        <mxCell id="7-9geM-oALS8OVl-i5yI-86" style="edgeStyle=orthogonalEdgeStyle;rounded=0;orthogonalLoop=1;jettySize=auto;html=1;entryX=0;entryY=0.5;entryDx=0;entryDy=0;" parent="1" source="7-9geM-oALS8OVl-i5yI-8" target="7-9geM-oALS8OVl-i5yI-80" edge="1">
          <mxGeometry relative="1" as="geometry" />
        </mxCell>
        <mxCell id="7-9geM-oALS8OVl-i5yI-91" style="edgeStyle=orthogonalEdgeStyle;rounded=0;orthogonalLoop=1;jettySize=auto;html=1;entryX=0;entryY=0.5;entryDx=0;entryDy=0;" parent="1" source="7-9geM-oALS8OVl-i5yI-8" target="7-9geM-oALS8OVl-i5yI-89" edge="1">
          <mxGeometry relative="1" as="geometry" />
        </mxCell>
        <mxCell id="7-9geM-oALS8OVl-i5yI-8" value="Employee" style="rounded=0;whiteSpace=wrap;html=1;" parent="1" vertex="1">
          <mxGeometry x="-340" y="50" width="120" height="60" as="geometry" />
        </mxCell>
        <mxCell id="7-9geM-oALS8OVl-i5yI-31" value="Contiene" style="rhombus;whiteSpace=wrap;html=1;" parent="1" vertex="1">
          <mxGeometry x="80" y="180" width="80" height="80" as="geometry" />
        </mxCell>
        <mxCell id="7-9geM-oALS8OVl-i5yI-35" value="" style="endArrow=none;html=1;rounded=0;" parent="1" edge="1">
          <mxGeometry width="50" height="50" relative="1" as="geometry">
            <mxPoint x="80" y="130" as="sourcePoint" />
            <mxPoint x="160" y="130" as="targetPoint" />
          </mxGeometry>
        </mxCell>
        <mxCell id="7-9geM-oALS8OVl-i5yI-39" value="Lavorano" style="rhombus;whiteSpace=wrap;html=1;" parent="1" vertex="1">
          <mxGeometry x="-120" y="40" width="80" height="80" as="geometry" />
        </mxCell>
        <mxCell id="7-9geM-oALS8OVl-i5yI-45" value="" style="endArrow=none;html=1;rounded=0;" parent="1" edge="1">
          <mxGeometry width="50" height="50" relative="1" as="geometry">
            <mxPoint x="40" y="50" as="sourcePoint" />
            <mxPoint x="40" y="110" as="targetPoint" />
          </mxGeometry>
        </mxCell>
        <mxCell id="7-9geM-oALS8OVl-i5yI-46" value="" style="rhombus;whiteSpace=wrap;html=1;" parent="1" vertex="1">
          <mxGeometry x="290" y="320" width="80" height="80" as="geometry" />
        </mxCell>
        <mxCell id="7-9geM-oALS8OVl-i5yI-49" value="" style="endArrow=none;html=1;rounded=0;" parent="1" edge="1">
          <mxGeometry width="50" height="50" relative="1" as="geometry">
            <mxPoint x="200" y="390" as="sourcePoint" />
            <mxPoint x="200" y="335" as="targetPoint" />
          </mxGeometry>
        </mxCell>
        <mxCell id="7-9geM-oALS8OVl-i5yI-51" value="Programma" style="rhombus;whiteSpace=wrap;html=1;" parent="1" vertex="1">
          <mxGeometry x="500" y="180" width="80" height="80" as="geometry" />
        </mxCell>
        <mxCell id="7-9geM-oALS8OVl-i5yI-54" value="" style="endArrow=none;html=1;rounded=0;" parent="1" edge="1">
          <mxGeometry width="50" height="50" relative="1" as="geometry">
            <mxPoint x="510" y="130" as="sourcePoint" />
            <mxPoint x="570" y="130" as="targetPoint" />
          </mxGeometry>
        </mxCell>
        <mxCell id="7-9geM-oALS8OVl-i5yI-56" value="Compra" style="rhombus;whiteSpace=wrap;html=1;" parent="1" vertex="1">
          <mxGeometry x="1020" y="180" width="80" height="80" as="geometry" />
        </mxCell>
        <mxCell id="7-9geM-oALS8OVl-i5yI-60" value="" style="rhombus;whiteSpace=wrap;html=1;" parent="1" vertex="1">
          <mxGeometry x="780" y="320" width="80" height="80" as="geometry" />
        </mxCell>
        <mxCell id="7-9geM-oALS8OVl-i5yI-72" value="" style="endArrow=none;html=1;rounded=0;" parent="1" edge="1">
          <mxGeometry width="50" height="50" relative="1" as="geometry">
            <mxPoint x="620" y="110" as="sourcePoint" />
            <mxPoint x="620" y="50" as="targetPoint" />
          </mxGeometry>
        </mxCell>
        <mxCell id="7-9geM-oALS8OVl-i5yI-73" value="" style="endArrow=none;html=1;rounded=0;" parent="1" edge="1">
          <mxGeometry width="50" height="50" relative="1" as="geometry">
            <mxPoint x="990" y="105" as="sourcePoint" />
            <mxPoint x="990" y="50" as="targetPoint" />
          </mxGeometry>
        </mxCell>
        <mxCell id="7-9geM-oALS8OVl-i5yI-74" value="" style="endArrow=none;html=1;rounded=0;" parent="1" edge="1">
          <mxGeometry width="50" height="50" relative="1" as="geometry">
            <mxPoint x="630" y="390" as="sourcePoint" />
            <mxPoint x="630" y="330" as="targetPoint" />
          </mxGeometry>
        </mxCell>
        <mxCell id="7-9geM-oALS8OVl-i5yI-75" value="" style="endArrow=none;html=1;rounded=0;" parent="1" edge="1">
          <mxGeometry width="50" height="50" relative="1" as="geometry">
            <mxPoint x="1020" y="130" as="sourcePoint" />
            <mxPoint x="1100" y="130" as="targetPoint" />
          </mxGeometry>
        </mxCell>
        <mxCell id="l1KYRSXGpNw2toulHuy--4" style="edgeStyle=orthogonalEdgeStyle;rounded=0;orthogonalLoop=1;jettySize=auto;html=1;entryX=0;entryY=0.5;entryDx=0;entryDy=0;" edge="1" parent="1" source="7-9geM-oALS8OVl-i5yI-77" target="l1KYRSXGpNw2toulHuy--1">
          <mxGeometry relative="1" as="geometry" />
        </mxCell>
        <mxCell id="l1KYRSXGpNw2toulHuy--5" style="edgeStyle=orthogonalEdgeStyle;rounded=0;orthogonalLoop=1;jettySize=auto;html=1;entryX=0;entryY=0.5;entryDx=0;entryDy=0;" edge="1" parent="1" source="7-9geM-oALS8OVl-i5yI-77" target="l1KYRSXGpNw2toulHuy--2">
          <mxGeometry relative="1" as="geometry" />
        </mxCell>
        <mxCell id="l1KYRSXGpNw2toulHuy--6" style="edgeStyle=orthogonalEdgeStyle;rounded=0;orthogonalLoop=1;jettySize=auto;html=1;entryX=0;entryY=0.5;entryDx=0;entryDy=0;" edge="1" parent="1" source="7-9geM-oALS8OVl-i5yI-77" target="l1KYRSXGpNw2toulHuy--3">
          <mxGeometry relative="1" as="geometry" />
        </mxCell>
        <mxCell id="7-9geM-oALS8OVl-i5yI-77" value="Review" style="rhombus;whiteSpace=wrap;html=1;" parent="1" vertex="1">
          <mxGeometry x="780" y="40" width="80" height="80" as="geometry" />
        </mxCell>
        <mxCell id="7-9geM-oALS8OVl-i5yI-78" value="" style="ellipse;whiteSpace=wrap;html=1;aspect=fixed;" parent="1" vertex="1">
          <mxGeometry x="-240" y="160" width="40" height="40" as="geometry" />
        </mxCell>
        <mxCell id="7-9geM-oALS8OVl-i5yI-79" value="" style="ellipse;whiteSpace=wrap;html=1;aspect=fixed;" parent="1" vertex="1">
          <mxGeometry x="-240" y="210" width="40" height="40" as="geometry" />
        </mxCell>
        <mxCell id="7-9geM-oALS8OVl-i5yI-80" value="" style="ellipse;whiteSpace=wrap;html=1;aspect=fixed;" parent="1" vertex="1">
          <mxGeometry x="-240" y="260" width="40" height="40" as="geometry" />
        </mxCell>
        <mxCell id="7-9geM-oALS8OVl-i5yI-81" value="FirstName" style="text;html=1;align=center;verticalAlign=middle;whiteSpace=wrap;rounded=0;" parent="1" vertex="1">
          <mxGeometry x="-200" y="165" width="60" height="30" as="geometry" />
        </mxCell>
        <mxCell id="7-9geM-oALS8OVl-i5yI-83" value="LastName" style="text;html=1;align=center;verticalAlign=middle;resizable=0;points=[];autosize=1;strokeColor=none;fillColor=none;" parent="1" vertex="1">
          <mxGeometry x="-210" y="215" width="80" height="30" as="geometry" />
        </mxCell>
        <mxCell id="7-9geM-oALS8OVl-i5yI-87" value="Position" style="text;html=1;align=center;verticalAlign=middle;whiteSpace=wrap;rounded=0;" parent="1" vertex="1">
          <mxGeometry x="-200" y="265" width="50" height="30" as="geometry" />
        </mxCell>
        <mxCell id="7-9geM-oALS8OVl-i5yI-88" style="edgeStyle=orthogonalEdgeStyle;rounded=0;orthogonalLoop=1;jettySize=auto;html=1;exitX=0.5;exitY=1;exitDx=0;exitDy=0;" parent="1" source="7-9geM-oALS8OVl-i5yI-87" target="7-9geM-oALS8OVl-i5yI-87" edge="1">
          <mxGeometry relative="1" as="geometry" />
        </mxCell>
        <mxCell id="7-9geM-oALS8OVl-i5yI-89" value="" style="ellipse;whiteSpace=wrap;html=1;aspect=fixed;" parent="1" vertex="1">
          <mxGeometry x="-240" y="310" width="40" height="40" as="geometry" />
        </mxCell>
        <mxCell id="7-9geM-oALS8OVl-i5yI-90" value="HireDate" style="text;html=1;align=center;verticalAlign=middle;whiteSpace=wrap;rounded=0;" parent="1" vertex="1">
          <mxGeometry x="-200" y="315" width="55" height="30" as="geometry" />
        </mxCell>
        <mxCell id="7-9geM-oALS8OVl-i5yI-93" value="" style="ellipse;whiteSpace=wrap;html=1;aspect=fixed;" parent="1" vertex="1">
          <mxGeometry x="200" y="150" width="40" height="40" as="geometry" />
        </mxCell>
        <mxCell id="7-9geM-oALS8OVl-i5yI-94" value="" style="ellipse;whiteSpace=wrap;html=1;aspect=fixed;" parent="1" vertex="1">
          <mxGeometry x="200" y="200" width="40" height="40" as="geometry" />
        </mxCell>
        <mxCell id="7-9geM-oALS8OVl-i5yI-99" value="" style="ellipse;whiteSpace=wrap;html=1;aspect=fixed;" parent="1" vertex="1">
          <mxGeometry x="200" y="250" width="40" height="40" as="geometry" />
        </mxCell>
        <mxCell id="7-9geM-oALS8OVl-i5yI-100" value="Name" style="text;html=1;align=center;verticalAlign=middle;whiteSpace=wrap;rounded=0;" parent="1" vertex="1">
          <mxGeometry x="230" y="155" width="60" height="30" as="geometry" />
        </mxCell>
        <mxCell id="7-9geM-oALS8OVl-i5yI-101" value="Address" style="text;html=1;align=center;verticalAlign=middle;whiteSpace=wrap;rounded=0;" parent="1" vertex="1">
          <mxGeometry x="240" y="205" width="50" height="30" as="geometry" />
        </mxCell>
        <mxCell id="7-9geM-oALS8OVl-i5yI-102" value="Phone" style="text;html=1;align=center;verticalAlign=middle;whiteSpace=wrap;rounded=0;" parent="1" vertex="1">
          <mxGeometry x="230" y="255" width="60" height="30" as="geometry" />
        </mxCell>
        <mxCell id="7-9geM-oALS8OVl-i5yI-108" value="" style="ellipse;whiteSpace=wrap;html=1;aspect=fixed;" parent="1" vertex="1">
          <mxGeometry x="160" y="440" width="40" height="40" as="geometry" />
        </mxCell>
        <mxCell id="7-9geM-oALS8OVl-i5yI-109" value="" style="ellipse;whiteSpace=wrap;html=1;aspect=fixed;" parent="1" vertex="1">
          <mxGeometry x="160" y="490" width="40" height="40" as="geometry" />
        </mxCell>
        <mxCell id="7-9geM-oALS8OVl-i5yI-110" value="" style="ellipse;whiteSpace=wrap;html=1;aspect=fixed;" parent="1" vertex="1">
          <mxGeometry x="160" y="540" width="40" height="40" as="geometry" />
        </mxCell>
        <mxCell id="7-9geM-oALS8OVl-i5yI-111" value="Name" style="text;html=1;align=center;verticalAlign=middle;whiteSpace=wrap;rounded=0;" parent="1" vertex="1">
          <mxGeometry x="190" y="445" width="60" height="35" as="geometry" />
        </mxCell>
        <mxCell id="7-9geM-oALS8OVl-i5yI-112" value="Capacity" style="text;html=1;align=center;verticalAlign=middle;resizable=0;points=[];autosize=1;strokeColor=none;fillColor=none;" parent="1" vertex="1">
          <mxGeometry x="190" y="495" width="70" height="30" as="geometry" />
        </mxCell>
        <mxCell id="7-9geM-oALS8OVl-i5yI-113" value="ScreenType" style="text;html=1;align=center;verticalAlign=middle;whiteSpace=wrap;rounded=0;" parent="1" vertex="1">
          <mxGeometry x="210" y="545" width="50" height="30" as="geometry" />
        </mxCell>
        <mxCell id="7-9geM-oALS8OVl-i5yI-114" style="edgeStyle=orthogonalEdgeStyle;rounded=0;orthogonalLoop=1;jettySize=auto;html=1;exitX=0.5;exitY=1;exitDx=0;exitDy=0;" parent="1" source="7-9geM-oALS8OVl-i5yI-113" target="7-9geM-oALS8OVl-i5yI-113" edge="1">
          <mxGeometry relative="1" as="geometry" />
        </mxCell>
        <mxCell id="7-9geM-oALS8OVl-i5yI-131" value="" style="ellipse;whiteSpace=wrap;html=1;aspect=fixed;" parent="1" vertex="1">
          <mxGeometry x="580" y="440" width="40" height="40" as="geometry" />
        </mxCell>
        <mxCell id="7-9geM-oALS8OVl-i5yI-132" value="" style="ellipse;whiteSpace=wrap;html=1;aspect=fixed;" parent="1" vertex="1">
          <mxGeometry x="580" y="490" width="40" height="40" as="geometry" />
        </mxCell>
        <mxCell id="7-9geM-oALS8OVl-i5yI-133" value="" style="ellipse;whiteSpace=wrap;html=1;aspect=fixed;" parent="1" vertex="1">
          <mxGeometry x="580" y="540" width="40" height="40" as="geometry" />
        </mxCell>
        <mxCell id="7-9geM-oALS8OVl-i5yI-134" value="ShowDate" style="text;html=1;align=center;verticalAlign=middle;whiteSpace=wrap;rounded=0;" parent="1" vertex="1">
          <mxGeometry x="620" y="442.5" width="60" height="35" as="geometry" />
        </mxCell>
        <mxCell id="7-9geM-oALS8OVl-i5yI-135" value="Price" style="text;html=1;align=center;verticalAlign=middle;resizable=0;points=[];autosize=1;strokeColor=none;fillColor=none;" parent="1" vertex="1">
          <mxGeometry x="610" y="495" width="50" height="30" as="geometry" />
        </mxCell>
        <mxCell id="7-9geM-oALS8OVl-i5yI-136" value="ScreenType" style="text;html=1;align=center;verticalAlign=middle;whiteSpace=wrap;rounded=0;" parent="1" vertex="1">
          <mxGeometry x="630" y="545" width="50" height="30" as="geometry" />
        </mxCell>
        <mxCell id="7-9geM-oALS8OVl-i5yI-137" style="edgeStyle=orthogonalEdgeStyle;rounded=0;orthogonalLoop=1;jettySize=auto;html=1;exitX=0.5;exitY=1;exitDx=0;exitDy=0;" parent="1" source="7-9geM-oALS8OVl-i5yI-136" target="7-9geM-oALS8OVl-i5yI-136" edge="1">
          <mxGeometry relative="1" as="geometry" />
        </mxCell>
        <mxCell id="7-9geM-oALS8OVl-i5yI-142" value="" style="ellipse;whiteSpace=wrap;html=1;aspect=fixed;" parent="1" vertex="1">
          <mxGeometry x="1100" y="440" width="40" height="40" as="geometry" />
        </mxCell>
        <mxCell id="7-9geM-oALS8OVl-i5yI-143" value="" style="ellipse;whiteSpace=wrap;html=1;aspect=fixed;" parent="1" vertex="1">
          <mxGeometry x="1100" y="490" width="40" height="40" as="geometry" />
        </mxCell>
        <mxCell id="7-9geM-oALS8OVl-i5yI-145" value="SeatNumber" style="text;html=1;align=center;verticalAlign=middle;whiteSpace=wrap;rounded=0;" parent="1" vertex="1">
          <mxGeometry x="1145" y="442.5" width="60" height="35" as="geometry" />
        </mxCell>
        <mxCell id="7-9geM-oALS8OVl-i5yI-146" value="PurchasedDateTime" style="text;html=1;align=center;verticalAlign=middle;resizable=0;points=[];autosize=1;strokeColor=none;fillColor=none;" parent="1" vertex="1">
          <mxGeometry x="1130" y="495" width="130" height="30" as="geometry" />
        </mxCell>
        <mxCell id="7-9geM-oALS8OVl-i5yI-152" value="" style="ellipse;whiteSpace=wrap;html=1;aspect=fixed;" parent="1" vertex="1">
          <mxGeometry x="1140" y="135" width="40" height="40" as="geometry" />
        </mxCell>
        <mxCell id="7-9geM-oALS8OVl-i5yI-153" value="" style="ellipse;whiteSpace=wrap;html=1;aspect=fixed;" parent="1" vertex="1">
          <mxGeometry x="1140" y="185" width="40" height="40" as="geometry" />
        </mxCell>
        <mxCell id="7-9geM-oALS8OVl-i5yI-154" value="" style="ellipse;whiteSpace=wrap;html=1;aspect=fixed;" parent="1" vertex="1">
          <mxGeometry x="1140" y="235" width="40" height="40" as="geometry" />
        </mxCell>
        <mxCell id="7-9geM-oALS8OVl-i5yI-155" value="FirstName" style="text;html=1;align=center;verticalAlign=middle;whiteSpace=wrap;rounded=0;" parent="1" vertex="1">
          <mxGeometry x="1180" y="140" width="60" height="30" as="geometry" />
        </mxCell>
        <mxCell id="7-9geM-oALS8OVl-i5yI-156" value="LastName" style="text;html=1;align=center;verticalAlign=middle;resizable=0;points=[];autosize=1;strokeColor=none;fillColor=none;" parent="1" vertex="1">
          <mxGeometry x="1170" y="190" width="80" height="30" as="geometry" />
        </mxCell>
        <mxCell id="7-9geM-oALS8OVl-i5yI-157" value="Email" style="text;html=1;align=center;verticalAlign=middle;whiteSpace=wrap;rounded=0;" parent="1" vertex="1">
          <mxGeometry x="1170" y="240" width="60" height="30" as="geometry" />
        </mxCell>
        <mxCell id="7-9geM-oALS8OVl-i5yI-158" style="edgeStyle=orthogonalEdgeStyle;rounded=0;orthogonalLoop=1;jettySize=auto;html=1;exitX=0.5;exitY=1;exitDx=0;exitDy=0;" parent="1" source="7-9geM-oALS8OVl-i5yI-157" target="7-9geM-oALS8OVl-i5yI-157" edge="1">
          <mxGeometry relative="1" as="geometry" />
        </mxCell>
        <mxCell id="7-9geM-oALS8OVl-i5yI-159" value="" style="ellipse;whiteSpace=wrap;html=1;aspect=fixed;" parent="1" vertex="1">
          <mxGeometry x="1140" y="285" width="40" height="40" as="geometry" />
        </mxCell>
        <mxCell id="7-9geM-oALS8OVl-i5yI-160" value="PhoneNumber" style="text;html=1;align=center;verticalAlign=middle;whiteSpace=wrap;rounded=0;" parent="1" vertex="1">
          <mxGeometry x="1195" y="290" width="55" height="30" as="geometry" />
        </mxCell>
        <mxCell id="l1KYRSXGpNw2toulHuy--1" value="" style="ellipse;whiteSpace=wrap;html=1;aspect=fixed;" vertex="1" parent="1">
          <mxGeometry x="840" y="-40" width="40" height="40" as="geometry" />
        </mxCell>
        <mxCell id="l1KYRSXGpNw2toulHuy--2" value="" style="ellipse;whiteSpace=wrap;html=1;aspect=fixed;" vertex="1" parent="1">
          <mxGeometry x="840" y="-90" width="40" height="40" as="geometry" />
        </mxCell>
        <mxCell id="l1KYRSXGpNw2toulHuy--3" value="" style="ellipse;whiteSpace=wrap;html=1;aspect=fixed;" vertex="1" parent="1">
          <mxGeometry x="840" y="-140" width="40" height="40" as="geometry" />
        </mxCell>
        <mxCell id="l1KYRSXGpNw2toulHuy--7" value="ReviewText" style="text;html=1;align=center;verticalAlign=middle;whiteSpace=wrap;rounded=0;" vertex="1" parent="1">
          <mxGeometry x="880" y="-135" width="70" height="30" as="geometry" />
        </mxCell>
        <mxCell id="l1KYRSXGpNw2toulHuy--8" value="Rating" style="text;html=1;align=center;verticalAlign=middle;whiteSpace=wrap;rounded=0;" vertex="1" parent="1">
          <mxGeometry x="870" y="-85" width="60" height="30" as="geometry" />
        </mxCell>
        <mxCell id="l1KYRSXGpNw2toulHuy--9" value="ReviewDate" style="text;html=1;align=center;verticalAlign=middle;whiteSpace=wrap;rounded=0;" vertex="1" parent="1">
          <mxGeometry x="880" y="-35" width="70" height="30" as="geometry" />
        </mxCell>
      </root>
    </mxGraphModel>
  </diagram>
</mxfile>
